<svg width="80" height="196" viewBox="0 0 80 196" fill="none" xmlns="http://www.w3.org/2000/svg">
<path d="M61.5177 0L48.1941 3.61791L50.1327 12.2601C49.5058 11.8396 48.7519 11.5938 47.9403 11.5938C45.7641 11.5938 44 13.3573 44 15.5326C44 17.7079 45.7641 19.4714 47.9403 19.4714C50.1164 19.4714 51.8805 17.708 51.8805 15.5326C51.8805 14.7765 51.6636 14.0727 51.2942 13.4729L49.7572 6.6211L61.2513 3.00874L62.3026 8.11266C61.6716 7.68361 60.91 7.43238 60.0894 7.43238C57.9132 7.43238 56.1491 9.19584 56.1491 11.3712C56.1491 13.5465 57.9132 15.3099 60.0894 15.3099C62.2655 15.3099 64.0296 13.5465 64.0296 11.3712C64.0296 10.607 63.8083 9.89611 63.4316 9.2922L61.5177 0V0Z" fill="black"/>
<path d="M75.8993 29C73.7458 29 72 30.7451 72 32.8979C72 33.5064 72.1435 34.0801 72.3923 34.5933L74.6178 43.7701L75.8811 43.464L74.1643 36.3848C74.6874 36.6454 75.2752 36.7958 75.8993 36.7958C78.0529 36.7958 79.7987 35.0506 79.7987 32.8979C79.7987 30.7452 78.0529 29 75.8993 29Z" fill="black"/>
<path d="M63.7101 57.8329L61.5007 49L60.1595 49.3151L61.8876 56.2241C61.3561 55.9835 60.7654 55.8453 60.1401 55.8453C57.8536 55.8453 56 57.6418 56 59.8579C56 62.074 57.8536 63.8705 60.1401 63.8705C62.4266 63.8705 64.2802 62.074 64.2802 59.8579C64.2802 59.1183 64.0701 58.4278 63.7101 57.8329V57.8329Z" fill="black"/>
<path d="M46.6727 193.857L43.6418 193.857L42.2 182.171L46.6733 182.171L46.6727 193.857Z" fill="#A0616A"/>
<path d="M36.2886 193.788C36.1942 193.947 36.1444 194.46 36.1444 194.645C36.1444 195.213 36.605 195.673 37.1731 195.673H46.5593C46.9468 195.673 47.261 195.359 47.261 194.972V194.581C47.261 194.581 47.7254 193.407 46.7694 191.96C46.7694 191.96 45.5813 193.093 43.8059 191.318L43.2823 190.37L39.4926 193.141L37.392 193.399C36.9325 193.456 36.525 193.39 36.2886 193.788H36.2886V193.788Z" fill="#2F2E41"/>
<path d="M33.0929 193.857L30.062 193.857L28.6202 182.171L33.0935 182.171L33.0929 193.857Z" fill="#A0616A"/>
<path d="M22.7088 193.788C22.6144 193.947 22.5646 194.46 22.5646 194.645C22.5646 195.213 23.0252 195.673 23.5933 195.673H32.9795C33.3671 195.673 33.6813 195.359 33.6813 194.972V194.581C33.6813 194.581 34.1456 193.407 33.1896 191.96C33.1896 191.96 32.0015 193.093 30.2261 191.318L29.7026 190.37L25.9128 193.141L23.8122 193.399C23.3527 193.456 22.9452 193.39 22.7088 193.788H22.7088V193.788Z" fill="#2F2E41"/>
<path d="M46.9329 120.542L49.7547 127.77L47.5501 185.506H41.3775L35.8222 133.411L34.4995 185.682L28.5032 185.506L21.9778 127.505L26.2987 122.305L46.9329 120.542Z" fill="#2F2E41"/>
<path d="M33.6177 79.5532L41.0248 79.0243L43.3175 82.7265L50.1956 84.6657L47.6383 102.56L50.3719 129.268C50.3719 129.268 40.4957 127.858 39.7903 130.679C39.0849 133.499 21.8015 127.858 21.8015 127.858L27.7096 109.611L27.1805 95.3315L25.5933 87.0457L32.8241 83.6961L33.6177 79.5532V79.5532Z" fill="#E6E6E6"/>
<path d="M30.2668 84.8421C30.2668 84.8421 24.3643 84.7539 23.5679 87.222C22.7715 89.6902 20.126 106.791 20.126 106.791L18.0979 114.283L27.1805 109.788L25.2405 106.796L31.5895 94.6264L30.2668 84.8421H30.2668Z" fill="#E6E6E6"/>
<path d="M33.8778 112.256C34.8537 112.257 35.7611 111.695 36.1405 110.796C36.4275 110.116 36.4004 109.464 36.1857 108.905C36.2548 108.876 36.3233 108.846 36.394 108.821C36.2901 108.779 36.1891 108.731 36.0882 108.684C35.7366 107.983 35.0626 107.475 34.2598 107.351C33.2654 106.287 32.6541 104.86 32.6478 103.29C32.6346 100.053 35.2608 97.3502 38.4974 97.2726C38.5228 97.272 38.5483 97.2715 38.5737 97.2712C40.023 97.2546 41.3377 98.065 42.072 99.3141C42.5004 100.043 43.2922 100.532 44.1993 100.532C44.8938 100.532 45.5203 100.245 45.9681 99.7836C46.9438 98.7778 48.1655 98.0294 49.5481 97.7998C50.4561 97.649 51.3959 97.5921 52.3573 97.6399C58.9392 97.967 64.6018 103.798 64.7423 110.384C64.8989 117.72 58.9972 123.715 51.6947 123.715C47.8949 123.715 44.4761 122.091 42.0918 119.5C41.0332 118.349 39.5498 117.705 37.9863 117.721C37.9704 117.721 37.9545 117.721 37.9385 117.721C35.4061 117.721 33.3532 115.669 33.3532 113.137C33.3532 112.997 33.3601 112.858 33.3732 112.721C33.3977 112.465 33.6205 112.256 33.8778 112.256L33.8778 112.256Z" fill="black"/>
<path d="M55.5745 108.377L11.6607 100.092L11.4844 103.265L55.0455 113.666L55.5745 108.377Z" fill="black"/>
<path d="M12.1898 100.62L11.6607 100.092C11.6607 100.092 9.36804 99.0338 9.36804 98.8575C9.36804 98.7471 5.98254 97.6008 3.44958 96.7586C2.03497 96.2882 0.541045 97.219 0.339617 98.6956L0.0222029 101.022C-0.167591 102.414 0.88256 103.666 2.28614 103.722L8.48624 103.97L11.4844 103.265L12.1898 100.62V100.62Z" fill="black"/>
<path d="M55.4864 109.347L55.5911 108.908L11.6492 100.51L11.5726 101.061L55.4864 109.347Z" fill="#3F3D56"/>
<path d="M55.3857 110.181L55.4864 109.7L11.6014 101.38L11.5726 101.943L55.3857 110.181Z" fill="#3F3D56"/>
<path d="M55.285 111.18L55.31 110.405L11.567 102.012L11.5726 102.471L55.285 111.18Z" fill="#3F3D56"/>
<path d="M55.1679 112.341L55.1337 111.639L11.5032 102.645L11.4656 102.817L55.1679 112.341Z" fill="#3F3D56"/>
<path d="M55.167 113.045L55.1336 112.52L11.5688 102.936L11.5297 103.108L55.167 113.045Z" fill="#3F3D56"/>
<path d="M29.9335 83.718L32.1186 82.5085L33.0664 101.854L32.7358 104.234C32.7358 104.234 27.2194 89.0288 29.9335 83.718H29.9335Z" fill="#3F3D56"/>
<path d="M37.4094 77.7021C40.4289 77.7021 42.8766 75.2553 42.8766 72.237C42.8766 69.2187 40.4289 66.7719 37.4094 66.7719C34.39 66.7719 31.9423 69.2187 31.9423 72.237C31.9423 75.2553 34.39 77.7021 37.4094 77.7021Z" fill="#A0616A"/>
<path d="M32.7359 75.4984L34.0429 76.5414L32.5595 70.9148C32.5595 70.9148 36.704 70.8266 37.0567 68.5348C37.0567 68.5348 40.3194 68.4467 41.2012 68.4467C42.083 68.4467 42.4809 74.2792 42.4809 74.2792C42.4809 74.2792 44.1993 69.5044 42.4357 67.0363C40.6721 64.5682 41.2894 66.0667 40.9367 65.1852C40.5839 64.3037 36.9685 63.4931 34.6759 64.3919C32.3832 65.2907 32.295 66.572 31.5895 66.5838C30.8841 66.5956 28.415 70.1215 30.7077 72.9422C33.0004 75.7629 32.7359 75.4984 32.7359 75.4984V75.4984Z" fill="#2F2E41"/>
<path d="M49.4385 111.362C50.0865 110.845 50.564 110.225 50.8331 109.611L57.3174 105.078L55.0689 102.056L48.7333 106.981C48.0755 107.107 47.3644 107.435 46.7164 107.952C45.236 109.132 44.6453 110.853 45.3969 111.795C46.1486 112.736 47.9581 112.543 49.4385 111.362V111.362Z" fill="#A0616A"/>
<path d="M24.5959 104.465C24.1151 105.14 23.8267 105.868 23.7366 106.531L18.7497 112.673L21.7427 114.96L26.4792 108.483C27.0769 108.181 27.6704 107.671 28.1512 106.996C29.2497 105.453 29.3443 103.637 28.3625 102.938C27.3807 102.239 25.6944 102.923 24.5959 104.465L24.5959 104.465Z" fill="#A0616A"/>
<path d="M47.3738 85.8117C47.3738 85.8117 48.961 83.1673 50.5483 84.7539C51.8043 86.0094 58.6922 93.9986 61.5125 97.2786C62.2902 98.1831 62.7172 99.3356 62.7172 100.528C62.7172 102.373 61.6982 104.067 60.0682 104.933L51.2537 109.611L48.7847 105.909L56.3682 100.444L44.7284 94.0975L47.3738 85.8117V85.8117Z" fill="#E6E6E6"/>
<path d="M19.5018 110.181L18.0979 114.283L22.1542 116.399L25.2405 114.283L27.1805 109.788L21.4488 108.113" fill="#E6E6E6"/>
</svg>
