<svg width="58" height="61" viewBox="0 0 58 61" fill="none" xmlns="http://www.w3.org/2000/svg">
<g filter="url(#filter0_d_193_6)">
<rect x="4" y="3" width="50" height="50" rx="10" fill="black"/>
<path d="M26.7 45V14.85H14.95V10.7H43.3V14.85H31.45V45H26.7Z" fill="url(#paint0_linear_193_6)"/>
<path d="M28.4 44.6C25.7333 44.6 23.4833 44.2 21.65 43.4C19.8167 42.5667 18.4333 41.4 17.5 39.9C16.5667 38.4 16.1 36.6167 16.1 34.55V33.9H20.55V34.55C20.55 36.6167 21.2 38.2 22.5 39.3C23.8333 40.3667 25.6667 40.9 28 40.9C30.3333 40.9 32.2167 40.4 33.65 39.4C35.0833 38.3667 35.8 36.7333 35.8 34.5C35.8 32.8667 35.4167 31.6167 34.65 30.75C33.8833 29.8833 32.8833 29.2833 31.65 28.95C30.45 28.5833 29.1667 28.4 27.8 28.4H24.2V24.7H27.95C29.2167 24.7 30.3833 24.5 31.45 24.1C32.5167 23.7 33.3667 23.05 34 22.15C34.6667 21.2167 35 20.0167 35 18.55C35 17.2167 34.7 16.1333 34.1 15.3C33.5333 14.4667 32.75 13.85 31.75 13.45C30.75 13.0167 29.65 12.8 28.45 12.8C27.1167 12.8 25.9167 13.0333 24.85 13.5C23.7833 13.9333 22.9333 14.6 22.3 15.5C21.7 16.4 21.4 17.5333 21.4 18.9V19.55H16.9V18.65C16.9 16.75 17.3833 15.0833 18.35 13.65C19.35 12.2167 20.7 11.1 22.4 10.3C24.1333 9.5 26.1167 9.1 28.35 9.1C30.55 9.1 32.4833 9.45 34.15 10.15C35.85 10.85 37.1833 11.8833 38.15 13.25C39.1167 14.6167 39.6 16.3 39.6 18.3C39.6 19.7667 39.3333 21.0167 38.8 22.05C38.2667 23.05 37.5667 23.8833 36.7 24.55C35.8333 25.2167 34.9 25.7667 33.9 26.2V26.4C35.7333 26.9333 37.2667 27.9 38.5 29.3C39.7333 30.7 40.35 32.5333 40.35 34.8C40.35 36.8333 39.8333 38.5833 38.8 40.05C37.8 41.5167 36.3833 42.65 34.55 43.45C32.75 44.2167 30.7 44.6 28.4 44.6Z" fill="url(#paint1_linear_193_6)"/>
</g>
<defs>
<filter id="filter0_d_193_6" x="0" y="3" width="58" height="58" filterUnits="userSpaceOnUse" color-interpolation-filters="sRGB">
<feFlood flood-opacity="0" result="BackgroundImageFix"/>
<feColorMatrix in="SourceAlpha" type="matrix" values="0 0 0 0 0 0 0 0 0 0 0 0 0 0 0 0 0 0 127 0" result="hardAlpha"/>
<feOffset dy="4"/>
<feGaussianBlur stdDeviation="2"/>
<feComposite in2="hardAlpha" operator="out"/>
<feColorMatrix type="matrix" values="0 0 0 0 0 0 0 0 0 0 0 0 0 0 0 0 0 0 0.25 0"/>
<feBlend mode="normal" in2="BackgroundImageFix" result="effect1_dropShadow_193_6"/>
<feBlend mode="normal" in="SourceGraphic" in2="effect1_dropShadow_193_6" result="shape"/>
</filter>
<linearGradient id="paint0_linear_193_6" x1="29.5" y1="1" x2="29.5" y2="55" gradientUnits="userSpaceOnUse">
<stop stop-color="#FDFDFD"/>
<stop offset="1" stop-color="#6D6D6D" stop-opacity="0"/>
</linearGradient>
<linearGradient id="paint1_linear_193_6" x1="28.5" y1="0" x2="28.5" y2="54" gradientUnits="userSpaceOnUse">
<stop offset="0.333333" stop-color="#FFC700" stop-opacity="0"/>
<stop offset="1" stop-color="#FFC700"/>
</linearGradient>
</defs>
</svg>
